# xmcd
#
# Track frame offsets: 
#        150
#        14261
#        27330
#        39858
#        54407
#        67314
#        80422
#        91855
#        105517
#        118965
#        132017
#        144171
#        158338
#        172085
#        184256
#        198939
#        211899
#        223771
#        237514
#        249316
#        260727
#        272881
#        287169
#        299921
#        310947
#        323065
#
# Disc length: 4468 seconds
#
# Revision: 0
# Processed by: cddbd v1.5.2PL0 Copyright (c) Steve Scherf et al.
# Submitted via: ExactAudioCopy v0.99pb5
#
DISCID=8611721a
DTITLE=Various Artist - Electric Blues - Teil 1: Die Anfänge 1939 - 1954
DYEAR=2010
DGENRE=Blues
TTITLE0=Andy Kirk and His Twelve Clouds Of Joy featuring guitar solo b
TTITLE0=y Floyd Smith - Floyd's Guitar Blues - 1939
TTITLE1=T-Bone Walker - Mean Old World - 1942
TTITLE2=Sister Rosetta Tharpe - Strange Things Happening Every Day - 1
TTITLE2=944
TTITLE3=Johnny Moore's Three Blazers - Drifting Blues - 1945
TTITLE4=Louis Jordan and his Tympany Five - Ain't That Just Like A Wom
TTITLE4=an - 1946
TTITLE5=Arthur 'Big Boy' Crudup - That's All Right - 1946
TTITLE6=Lightnin' Hopkins - Let Me Play With Your Poodle - 1947
TTITLE7=T-Bone Walker - Call It Stormy Monday (But Tuesday Is Just As 
TTITLE7=Bad) - 1947
TTITLE8=Sonny Boy Williamson - Better Cut That Out - 1947
TTITLE9=Big Bill (Broonzy) and His Rythm Band - Ramblin' Bill - 1947
TTITLE10=Muddy Waters - I Can't Be Satisfied - 1948
TTITLE11=John Lee Hooker - Boogie Chillen - 1948
TTITLE12=Pee Wee Crayton - Blues After Hours - 1948
TTITLE13=Clarence 'Gatemouth' Brown - Mary Is Fine - 1949
TTITLE14=Stick McGhee and His Buddies - Drinkin' Wine Spo-Dee-O-Dee - 
TTITLE14=1949
TTITLE15=Little Willie Littlefield - Hit The Road - 1949
TTITLE16=Jimmy Witherspoon - Who's Been Jivin' You - 1949
TTITLE17=The Nighthawks (Robert Nighthawk) - Black Angel Blues (Sweet 
TTITLE17=Black Angel) - 1949
TTITLE18=Baby Boy Warren - My Special Friend Blues - 1949
TTITLE19=Lowell Fulson - Every Day I Have The Blues (Lonely Heart Blue
TTITLE19=s) - 1949
TTITLE20=Goree Carter and His Hepcats - Rock Awhile - 1949
TTITLE21=Clanrence Garlow - Bon Ton Roula - 1949
TTITLE22=Baby Face Leroy Trio - Rollin' And Tumblin' Part 1 - 1950
TTITLE23=Gene Phillips with Jack McVea Orchestra - Slippin' And Slidin
TTITLE23=' 1950
TTITLE24=Jimmy McCracklin - Rockin' All Day (aka Rockin' And Reelin') 
TTITLE24=1950
TTITLE25=Roy Brown and His Mighty Mighty Men - Love Don't Love Nobody 
TTITLE25=1950
EXTD=
EXTT0=
EXTT1=
EXTT2=
EXTT3=
EXTT4=
EXTT5=
EXTT6=
EXTT7=
EXTT8=
EXTT9=
EXTT10=
EXTT11=
EXTT12=
EXTT13=
EXTT14=
EXTT15=
EXTT16=
EXTT17=
EXTT18=
EXTT19=
EXTT20=
EXTT21=
EXTT22=
EXTT23=
EXTT24=
EXTT25=
PLAYORDER=
